<mxfile host="Electron" agent="Mozilla/5.0 (Windows NT 10.0; Win64; x64) AppleWebKit/537.36 (KHTML, like Gecko) draw.io/24.7.17 Chrome/128.0.6613.36 Electron/32.0.1 Safari/537.36" version="24.7.17">
  <diagram name="Seite-1" id="Lkq8PLDJVrWw5UnLzXGA">
    <mxGraphModel dx="2049" dy="1263" grid="1" gridSize="10" guides="1" tooltips="1" connect="1" arrows="1" fold="1" page="1" pageScale="1" pageWidth="1169" pageHeight="827" math="0" shadow="0">
      <root>
        <mxCell id="0" />
        <mxCell id="1" parent="0" />
        <mxCell id="cPIyVLXr5MEwnOAAFTvE-1" style="edgeStyle=orthogonalEdgeStyle;rounded=0;orthogonalLoop=1;jettySize=auto;html=1;exitX=0.5;exitY=0;exitDx=0;exitDy=0;entryX=0.5;entryY=1;entryDx=0;entryDy=0;" edge="1" parent="1" source="cPIyVLXr5MEwnOAAFTvE-9" target="cPIyVLXr5MEwnOAAFTvE-14">
          <mxGeometry relative="1" as="geometry" />
        </mxCell>
        <mxCell id="cPIyVLXr5MEwnOAAFTvE-2" style="edgeStyle=orthogonalEdgeStyle;rounded=0;orthogonalLoop=1;jettySize=auto;html=1;exitX=0.75;exitY=0;exitDx=0;exitDy=0;entryX=0;entryY=0.5;entryDx=0;entryDy=0;" edge="1" parent="1" source="cPIyVLXr5MEwnOAAFTvE-9" target="cPIyVLXr5MEwnOAAFTvE-15">
          <mxGeometry relative="1" as="geometry" />
        </mxCell>
        <mxCell id="cPIyVLXr5MEwnOAAFTvE-3" style="edgeStyle=orthogonalEdgeStyle;rounded=0;orthogonalLoop=1;jettySize=auto;html=1;exitX=1;exitY=0.5;exitDx=0;exitDy=0;entryX=0.5;entryY=1;entryDx=0;entryDy=0;" edge="1" parent="1" source="cPIyVLXr5MEwnOAAFTvE-9" target="cPIyVLXr5MEwnOAAFTvE-11">
          <mxGeometry relative="1" as="geometry" />
        </mxCell>
        <mxCell id="cPIyVLXr5MEwnOAAFTvE-4" style="edgeStyle=orthogonalEdgeStyle;rounded=0;orthogonalLoop=1;jettySize=auto;html=1;exitX=0.25;exitY=0;exitDx=0;exitDy=0;entryX=1;entryY=1;entryDx=0;entryDy=0;" edge="1" parent="1" source="cPIyVLXr5MEwnOAAFTvE-9" target="cPIyVLXr5MEwnOAAFTvE-12">
          <mxGeometry relative="1" as="geometry" />
        </mxCell>
        <mxCell id="cPIyVLXr5MEwnOAAFTvE-5" style="edgeStyle=orthogonalEdgeStyle;rounded=0;orthogonalLoop=1;jettySize=auto;html=1;exitX=0;exitY=0.5;exitDx=0;exitDy=0;entryX=1;entryY=0.5;entryDx=0;entryDy=0;" edge="1" parent="1" source="cPIyVLXr5MEwnOAAFTvE-9" target="cPIyVLXr5MEwnOAAFTvE-13">
          <mxGeometry relative="1" as="geometry" />
        </mxCell>
        <mxCell id="cPIyVLXr5MEwnOAAFTvE-6" style="edgeStyle=orthogonalEdgeStyle;rounded=0;orthogonalLoop=1;jettySize=auto;html=1;exitX=0.25;exitY=1;exitDx=0;exitDy=0;entryX=0.5;entryY=0;entryDx=0;entryDy=0;" edge="1" parent="1" source="cPIyVLXr5MEwnOAAFTvE-9" target="cPIyVLXr5MEwnOAAFTvE-10">
          <mxGeometry relative="1" as="geometry" />
        </mxCell>
        <mxCell id="cPIyVLXr5MEwnOAAFTvE-7" value="n" style="edgeStyle=orthogonalEdgeStyle;rounded=0;orthogonalLoop=1;jettySize=auto;html=1;exitX=0.5;exitY=1;exitDx=0;exitDy=0;entryX=0;entryY=0.5;entryDx=0;entryDy=0;" edge="1" parent="1" source="cPIyVLXr5MEwnOAAFTvE-9" target="cPIyVLXr5MEwnOAAFTvE-37">
          <mxGeometry relative="1" as="geometry" />
        </mxCell>
        <mxCell id="cPIyVLXr5MEwnOAAFTvE-8" value="n" style="edgeStyle=orthogonalEdgeStyle;rounded=0;orthogonalLoop=1;jettySize=auto;html=1;exitX=0.5;exitY=1;exitDx=0;exitDy=0;entryX=0;entryY=0.5;entryDx=0;entryDy=0;" edge="1" parent="1" source="cPIyVLXr5MEwnOAAFTvE-9" target="cPIyVLXr5MEwnOAAFTvE-39">
          <mxGeometry relative="1" as="geometry" />
        </mxCell>
        <mxCell id="cPIyVLXr5MEwnOAAFTvE-9" value="User" style="rounded=0;whiteSpace=wrap;html=1;" vertex="1" parent="1">
          <mxGeometry x="325" y="254" width="120" height="60" as="geometry" />
        </mxCell>
        <mxCell id="cPIyVLXr5MEwnOAAFTvE-10" value="&lt;u&gt;ID&lt;/u&gt;" style="ellipse;whiteSpace=wrap;html=1;aspect=fixed;" vertex="1" parent="1">
          <mxGeometry x="275" y="344" width="80" height="80" as="geometry" />
        </mxCell>
        <mxCell id="cPIyVLXr5MEwnOAAFTvE-11" value="Benutzername" style="ellipse;whiteSpace=wrap;html=1;aspect=fixed;" vertex="1" parent="1">
          <mxGeometry x="525" y="164" width="90" height="90" as="geometry" />
        </mxCell>
        <mxCell id="cPIyVLXr5MEwnOAAFTvE-12" value="Passwort" style="ellipse;whiteSpace=wrap;html=1;aspect=fixed;" vertex="1" parent="1">
          <mxGeometry x="285" y="154" width="80" height="80" as="geometry" />
        </mxCell>
        <mxCell id="cPIyVLXr5MEwnOAAFTvE-13" value="Profilbild" style="ellipse;whiteSpace=wrap;html=1;aspect=fixed;" vertex="1" parent="1">
          <mxGeometry x="205" y="244" width="80" height="80" as="geometry" />
        </mxCell>
        <mxCell id="cPIyVLXr5MEwnOAAFTvE-14" value="kmgelaufen" style="ellipse;whiteSpace=wrap;html=1;aspect=fixed;" vertex="1" parent="1">
          <mxGeometry x="345" y="64" width="80" height="80" as="geometry" />
        </mxCell>
        <mxCell id="cPIyVLXr5MEwnOAAFTvE-15" value="hoehenmeter" style="ellipse;whiteSpace=wrap;html=1;aspect=fixed;" vertex="1" parent="1">
          <mxGeometry x="415" y="154" width="80" height="80" as="geometry" />
        </mxCell>
        <mxCell id="cPIyVLXr5MEwnOAAFTvE-16" style="edgeStyle=orthogonalEdgeStyle;rounded=0;orthogonalLoop=1;jettySize=auto;html=1;exitX=0.5;exitY=0;exitDx=0;exitDy=0;entryX=0.5;entryY=1;entryDx=0;entryDy=0;" edge="1" parent="1" source="cPIyVLXr5MEwnOAAFTvE-22" target="cPIyVLXr5MEwnOAAFTvE-25">
          <mxGeometry relative="1" as="geometry" />
        </mxCell>
        <mxCell id="cPIyVLXr5MEwnOAAFTvE-17" style="edgeStyle=orthogonalEdgeStyle;rounded=0;orthogonalLoop=1;jettySize=auto;html=1;exitX=0.25;exitY=0;exitDx=0;exitDy=0;entryX=0.5;entryY=1;entryDx=0;entryDy=0;" edge="1" parent="1" source="cPIyVLXr5MEwnOAAFTvE-22" target="cPIyVLXr5MEwnOAAFTvE-26">
          <mxGeometry relative="1" as="geometry" />
        </mxCell>
        <mxCell id="cPIyVLXr5MEwnOAAFTvE-18" style="edgeStyle=orthogonalEdgeStyle;rounded=0;orthogonalLoop=1;jettySize=auto;html=1;exitX=0.75;exitY=0;exitDx=0;exitDy=0;entryX=0.5;entryY=1;entryDx=0;entryDy=0;" edge="1" parent="1" source="cPIyVLXr5MEwnOAAFTvE-22" target="cPIyVLXr5MEwnOAAFTvE-27">
          <mxGeometry relative="1" as="geometry" />
        </mxCell>
        <mxCell id="cPIyVLXr5MEwnOAAFTvE-19" style="edgeStyle=orthogonalEdgeStyle;rounded=0;orthogonalLoop=1;jettySize=auto;html=1;exitX=1;exitY=0.5;exitDx=0;exitDy=0;entryX=0;entryY=0.5;entryDx=0;entryDy=0;" edge="1" parent="1" source="cPIyVLXr5MEwnOAAFTvE-22" target="cPIyVLXr5MEwnOAAFTvE-23">
          <mxGeometry relative="1" as="geometry" />
        </mxCell>
        <mxCell id="cPIyVLXr5MEwnOAAFTvE-20" style="edgeStyle=orthogonalEdgeStyle;rounded=0;orthogonalLoop=1;jettySize=auto;html=1;exitX=0.75;exitY=1;exitDx=0;exitDy=0;entryX=0;entryY=0.5;entryDx=0;entryDy=0;" edge="1" parent="1" source="cPIyVLXr5MEwnOAAFTvE-22" target="cPIyVLXr5MEwnOAAFTvE-24">
          <mxGeometry relative="1" as="geometry" />
        </mxCell>
        <mxCell id="cPIyVLXr5MEwnOAAFTvE-21" style="edgeStyle=orthogonalEdgeStyle;rounded=0;orthogonalLoop=1;jettySize=auto;html=1;exitX=0.25;exitY=1;exitDx=0;exitDy=0;entryX=0.5;entryY=0;entryDx=0;entryDy=0;" edge="1" parent="1" source="cPIyVLXr5MEwnOAAFTvE-22" target="cPIyVLXr5MEwnOAAFTvE-41">
          <mxGeometry relative="1" as="geometry" />
        </mxCell>
        <mxCell id="cPIyVLXr5MEwnOAAFTvE-43" style="edgeStyle=orthogonalEdgeStyle;rounded=0;orthogonalLoop=1;jettySize=auto;html=1;exitX=0.5;exitY=1;exitDx=0;exitDy=0;entryX=0.5;entryY=0;entryDx=0;entryDy=0;" edge="1" parent="1" source="cPIyVLXr5MEwnOAAFTvE-22" target="cPIyVLXr5MEwnOAAFTvE-42">
          <mxGeometry relative="1" as="geometry">
            <Array as="points">
              <mxPoint x="775" y="390" />
              <mxPoint x="830" y="390" />
              <mxPoint x="830" y="420" />
              <mxPoint x="855" y="420" />
            </Array>
          </mxGeometry>
        </mxCell>
        <mxCell id="cPIyVLXr5MEwnOAAFTvE-22" value="Ziel" style="rounded=0;whiteSpace=wrap;html=1;" vertex="1" parent="1">
          <mxGeometry x="715" y="264" width="120" height="60" as="geometry" />
        </mxCell>
        <mxCell id="cPIyVLXr5MEwnOAAFTvE-23" value="&lt;u&gt;ID&lt;/u&gt;" style="ellipse;whiteSpace=wrap;html=1;aspect=fixed;" vertex="1" parent="1">
          <mxGeometry x="885" y="224" width="80" height="80" as="geometry" />
        </mxCell>
        <mxCell id="cPIyVLXr5MEwnOAAFTvE-24" value="Name" style="ellipse;whiteSpace=wrap;html=1;aspect=fixed;" vertex="1" parent="1">
          <mxGeometry x="865" y="344" width="80" height="80" as="geometry" />
        </mxCell>
        <mxCell id="cPIyVLXr5MEwnOAAFTvE-25" value="hoehe" style="ellipse;whiteSpace=wrap;html=1;aspect=fixed;" vertex="1" parent="1">
          <mxGeometry x="735" y="34" width="80" height="80" as="geometry" />
        </mxCell>
        <mxCell id="cPIyVLXr5MEwnOAAFTvE-26" value="Bild" style="ellipse;whiteSpace=wrap;html=1;aspect=fixed;" vertex="1" parent="1">
          <mxGeometry x="665" y="134" width="80" height="80" as="geometry" />
        </mxCell>
        <mxCell id="cPIyVLXr5MEwnOAAFTvE-27" value="Schwierigkeit" style="ellipse;whiteSpace=wrap;html=1;aspect=fixed;" vertex="1" parent="1">
          <mxGeometry x="805" y="134" width="80" height="80" as="geometry" />
        </mxCell>
        <mxCell id="cPIyVLXr5MEwnOAAFTvE-28" style="edgeStyle=orthogonalEdgeStyle;rounded=0;orthogonalLoop=1;jettySize=auto;html=1;exitX=0.5;exitY=0;exitDx=0;exitDy=0;entryX=0.5;entryY=1;entryDx=0;entryDy=0;" edge="1" parent="1" source="cPIyVLXr5MEwnOAAFTvE-32" target="cPIyVLXr5MEwnOAAFTvE-34">
          <mxGeometry relative="1" as="geometry" />
        </mxCell>
        <mxCell id="cPIyVLXr5MEwnOAAFTvE-29" style="edgeStyle=orthogonalEdgeStyle;rounded=0;orthogonalLoop=1;jettySize=auto;html=1;exitX=1;exitY=0.5;exitDx=0;exitDy=0;entryX=0;entryY=0.5;entryDx=0;entryDy=0;" edge="1" parent="1" source="cPIyVLXr5MEwnOAAFTvE-32" target="cPIyVLXr5MEwnOAAFTvE-35">
          <mxGeometry relative="1" as="geometry" />
        </mxCell>
        <mxCell id="cPIyVLXr5MEwnOAAFTvE-30" style="edgeStyle=orthogonalEdgeStyle;rounded=0;orthogonalLoop=1;jettySize=auto;html=1;exitX=0.75;exitY=1;exitDx=0;exitDy=0;entryX=0;entryY=0.5;entryDx=0;entryDy=0;" edge="1" parent="1" source="cPIyVLXr5MEwnOAAFTvE-32" target="cPIyVLXr5MEwnOAAFTvE-33">
          <mxGeometry relative="1" as="geometry" />
        </mxCell>
        <mxCell id="cPIyVLXr5MEwnOAAFTvE-31" style="edgeStyle=orthogonalEdgeStyle;rounded=0;orthogonalLoop=1;jettySize=auto;html=1;exitX=0.25;exitY=1;exitDx=0;exitDy=0;entryX=0.5;entryY=0;entryDx=0;entryDy=0;" edge="1" parent="1" source="cPIyVLXr5MEwnOAAFTvE-32" target="cPIyVLXr5MEwnOAAFTvE-40">
          <mxGeometry relative="1" as="geometry" />
        </mxCell>
        <mxCell id="cPIyVLXr5MEwnOAAFTvE-32" value="Erfolg" style="rounded=0;whiteSpace=wrap;html=1;" vertex="1" parent="1">
          <mxGeometry x="525" y="624" width="120" height="60" as="geometry" />
        </mxCell>
        <mxCell id="cPIyVLXr5MEwnOAAFTvE-33" value="&lt;u&gt;ID&lt;/u&gt;" style="ellipse;whiteSpace=wrap;html=1;aspect=fixed;" vertex="1" parent="1">
          <mxGeometry x="625" y="714" width="80" height="80" as="geometry" />
        </mxCell>
        <mxCell id="cPIyVLXr5MEwnOAAFTvE-34" value="Name" style="ellipse;whiteSpace=wrap;html=1;aspect=fixed;" vertex="1" parent="1">
          <mxGeometry x="575" y="504" width="80" height="80" as="geometry" />
        </mxCell>
        <mxCell id="cPIyVLXr5MEwnOAAFTvE-35" value="Beschreibung" style="ellipse;whiteSpace=wrap;html=1;aspect=fixed;" vertex="1" parent="1">
          <mxGeometry x="695" y="594" width="80" height="80" as="geometry" />
        </mxCell>
        <mxCell id="cPIyVLXr5MEwnOAAFTvE-36" value="m" style="edgeStyle=orthogonalEdgeStyle;rounded=0;orthogonalLoop=1;jettySize=auto;html=1;exitX=1;exitY=0.5;exitDx=0;exitDy=0;entryX=0;entryY=0.5;entryDx=0;entryDy=0;" edge="1" parent="1" source="cPIyVLXr5MEwnOAAFTvE-37" target="cPIyVLXr5MEwnOAAFTvE-22">
          <mxGeometry relative="1" as="geometry" />
        </mxCell>
        <mxCell id="cPIyVLXr5MEwnOAAFTvE-37" value="besteigt" style="rhombus;whiteSpace=wrap;html=1;" vertex="1" parent="1">
          <mxGeometry x="559" y="334" width="80" height="80" as="geometry" />
        </mxCell>
        <mxCell id="cPIyVLXr5MEwnOAAFTvE-38" value="m" style="edgeStyle=orthogonalEdgeStyle;rounded=0;orthogonalLoop=1;jettySize=auto;html=1;exitX=1;exitY=0.5;exitDx=0;exitDy=0;entryX=0;entryY=0.5;entryDx=0;entryDy=0;" edge="1" parent="1" source="cPIyVLXr5MEwnOAAFTvE-39" target="cPIyVLXr5MEwnOAAFTvE-32">
          <mxGeometry relative="1" as="geometry" />
        </mxCell>
        <mxCell id="cPIyVLXr5MEwnOAAFTvE-39" value="freischalten" style="rhombus;whiteSpace=wrap;html=1;" vertex="1" parent="1">
          <mxGeometry x="405" y="554" width="80" height="80" as="geometry" />
        </mxCell>
        <mxCell id="cPIyVLXr5MEwnOAAFTvE-40" value="Schwierigkeit" style="ellipse;whiteSpace=wrap;html=1;aspect=fixed;" vertex="1" parent="1">
          <mxGeometry x="479" y="714" width="80" height="80" as="geometry" />
        </mxCell>
        <mxCell id="cPIyVLXr5MEwnOAAFTvE-41" value="lat" style="ellipse;whiteSpace=wrap;html=1;aspect=fixed;" vertex="1" parent="1">
          <mxGeometry x="715" y="394" width="80" height="80" as="geometry" />
        </mxCell>
        <mxCell id="cPIyVLXr5MEwnOAAFTvE-42" value="lng" style="ellipse;whiteSpace=wrap;html=1;aspect=fixed;" vertex="1" parent="1">
          <mxGeometry x="815" y="440" width="80" height="80" as="geometry" />
        </mxCell>
        <mxCell id="cPIyVLXr5MEwnOAAFTvE-44" value="User" style="swimlane;fontStyle=0;childLayout=stackLayout;horizontal=1;startSize=30;horizontalStack=0;resizeParent=1;resizeParentMax=0;resizeLast=0;collapsible=1;marginBottom=0;whiteSpace=wrap;html=1;" vertex="1" parent="1">
          <mxGeometry x="342" y="1021" width="140" height="210" as="geometry" />
        </mxCell>
        <mxCell id="cPIyVLXr5MEwnOAAFTvE-45" value="ID: int (PK)" style="text;strokeColor=none;fillColor=none;align=left;verticalAlign=middle;spacingLeft=4;spacingRight=4;overflow=hidden;points=[[0,0.5],[1,0.5]];portConstraint=eastwest;rotatable=0;whiteSpace=wrap;html=1;" vertex="1" parent="cPIyVLXr5MEwnOAAFTvE-44">
          <mxGeometry y="30" width="140" height="30" as="geometry" />
        </mxCell>
        <mxCell id="cPIyVLXr5MEwnOAAFTvE-46" value="Benutzername:varchar" style="text;strokeColor=none;fillColor=none;align=left;verticalAlign=middle;spacingLeft=4;spacingRight=4;overflow=hidden;points=[[0,0.5],[1,0.5]];portConstraint=eastwest;rotatable=0;whiteSpace=wrap;html=1;" vertex="1" parent="cPIyVLXr5MEwnOAAFTvE-44">
          <mxGeometry y="60" width="140" height="30" as="geometry" />
        </mxCell>
        <mxCell id="cPIyVLXr5MEwnOAAFTvE-47" value="Passwort:varchar" style="text;strokeColor=none;fillColor=none;align=left;verticalAlign=middle;spacingLeft=4;spacingRight=4;overflow=hidden;points=[[0,0.5],[1,0.5]];portConstraint=eastwest;rotatable=0;whiteSpace=wrap;html=1;" vertex="1" parent="cPIyVLXr5MEwnOAAFTvE-44">
          <mxGeometry y="90" width="140" height="30" as="geometry" />
        </mxCell>
        <mxCell id="cPIyVLXr5MEwnOAAFTvE-48" value="Profilbild:varchar" style="text;strokeColor=none;fillColor=none;align=left;verticalAlign=middle;spacingLeft=4;spacingRight=4;overflow=hidden;points=[[0,0.5],[1,0.5]];portConstraint=eastwest;rotatable=0;whiteSpace=wrap;html=1;" vertex="1" parent="cPIyVLXr5MEwnOAAFTvE-44">
          <mxGeometry y="120" width="140" height="30" as="geometry" />
        </mxCell>
        <mxCell id="cPIyVLXr5MEwnOAAFTvE-49" value="kmgelaufen:double" style="text;strokeColor=none;fillColor=none;align=left;verticalAlign=middle;spacingLeft=4;spacingRight=4;overflow=hidden;points=[[0,0.5],[1,0.5]];portConstraint=eastwest;rotatable=0;whiteSpace=wrap;html=1;" vertex="1" parent="cPIyVLXr5MEwnOAAFTvE-44">
          <mxGeometry y="150" width="140" height="30" as="geometry" />
        </mxCell>
        <mxCell id="cPIyVLXr5MEwnOAAFTvE-50" value="hoehenmeter:double" style="text;strokeColor=none;fillColor=none;align=left;verticalAlign=middle;spacingLeft=4;spacingRight=4;overflow=hidden;points=[[0,0.5],[1,0.5]];portConstraint=eastwest;rotatable=0;whiteSpace=wrap;html=1;" vertex="1" parent="cPIyVLXr5MEwnOAAFTvE-44">
          <mxGeometry y="180" width="140" height="30" as="geometry" />
        </mxCell>
        <mxCell id="cPIyVLXr5MEwnOAAFTvE-51" value="Ziel" style="swimlane;fontStyle=0;childLayout=stackLayout;horizontal=1;startSize=30;horizontalStack=0;resizeParent=1;resizeParentMax=0;resizeLast=0;collapsible=1;marginBottom=0;whiteSpace=wrap;html=1;" vertex="1" parent="1">
          <mxGeometry x="552" y="1021" width="140" height="240" as="geometry" />
        </mxCell>
        <mxCell id="cPIyVLXr5MEwnOAAFTvE-52" value="ID: int (PK)" style="text;strokeColor=none;fillColor=none;align=left;verticalAlign=middle;spacingLeft=4;spacingRight=4;overflow=hidden;points=[[0,0.5],[1,0.5]];portConstraint=eastwest;rotatable=0;whiteSpace=wrap;html=1;" vertex="1" parent="cPIyVLXr5MEwnOAAFTvE-51">
          <mxGeometry y="30" width="140" height="30" as="geometry" />
        </mxCell>
        <mxCell id="cPIyVLXr5MEwnOAAFTvE-53" value="Name:varchar" style="text;strokeColor=none;fillColor=none;align=left;verticalAlign=middle;spacingLeft=4;spacingRight=4;overflow=hidden;points=[[0,0.5],[1,0.5]];portConstraint=eastwest;rotatable=0;whiteSpace=wrap;html=1;" vertex="1" parent="cPIyVLXr5MEwnOAAFTvE-51">
          <mxGeometry y="60" width="140" height="30" as="geometry" />
        </mxCell>
        <mxCell id="cPIyVLXr5MEwnOAAFTvE-54" value="hoehe:double" style="text;strokeColor=none;fillColor=none;align=left;verticalAlign=middle;spacingLeft=4;spacingRight=4;overflow=hidden;points=[[0,0.5],[1,0.5]];portConstraint=eastwest;rotatable=0;whiteSpace=wrap;html=1;" vertex="1" parent="cPIyVLXr5MEwnOAAFTvE-51">
          <mxGeometry y="90" width="140" height="30" as="geometry" />
        </mxCell>
        <mxCell id="cPIyVLXr5MEwnOAAFTvE-55" value="Schwierigkeit :int" style="text;strokeColor=none;fillColor=none;align=left;verticalAlign=middle;spacingLeft=4;spacingRight=4;overflow=hidden;points=[[0,0.5],[1,0.5]];portConstraint=eastwest;rotatable=0;whiteSpace=wrap;html=1;" vertex="1" parent="cPIyVLXr5MEwnOAAFTvE-51">
          <mxGeometry y="120" width="140" height="30" as="geometry" />
        </mxCell>
        <mxCell id="cPIyVLXr5MEwnOAAFTvE-56" value="Bild:varchar" style="text;strokeColor=none;fillColor=none;align=left;verticalAlign=middle;spacingLeft=4;spacingRight=4;overflow=hidden;points=[[0,0.5],[1,0.5]];portConstraint=eastwest;rotatable=0;whiteSpace=wrap;html=1;" vertex="1" parent="cPIyVLXr5MEwnOAAFTvE-51">
          <mxGeometry y="150" width="140" height="30" as="geometry" />
        </mxCell>
        <mxCell id="cPIyVLXr5MEwnOAAFTvE-57" value="lat: double" style="text;strokeColor=none;fillColor=none;align=left;verticalAlign=middle;spacingLeft=4;spacingRight=4;overflow=hidden;points=[[0,0.5],[1,0.5]];portConstraint=eastwest;rotatable=0;whiteSpace=wrap;html=1;" vertex="1" parent="cPIyVLXr5MEwnOAAFTvE-51">
          <mxGeometry y="180" width="140" height="30" as="geometry" />
        </mxCell>
        <mxCell id="cPIyVLXr5MEwnOAAFTvE-58" value="lng: double" style="text;strokeColor=none;fillColor=none;align=left;verticalAlign=middle;spacingLeft=4;spacingRight=4;overflow=hidden;points=[[0,0.5],[1,0.5]];portConstraint=eastwest;rotatable=0;whiteSpace=wrap;html=1;" vertex="1" parent="cPIyVLXr5MEwnOAAFTvE-51">
          <mxGeometry y="210" width="140" height="30" as="geometry" />
        </mxCell>
        <mxCell id="cPIyVLXr5MEwnOAAFTvE-59" value="Erfolg" style="swimlane;fontStyle=0;childLayout=stackLayout;horizontal=1;startSize=30;horizontalStack=0;resizeParent=1;resizeParentMax=0;resizeLast=0;collapsible=1;marginBottom=0;whiteSpace=wrap;html=1;" vertex="1" parent="1">
          <mxGeometry x="762" y="1021" width="140" height="150" as="geometry" />
        </mxCell>
        <mxCell id="cPIyVLXr5MEwnOAAFTvE-60" value="ID: int (PK)" style="text;strokeColor=none;fillColor=none;align=left;verticalAlign=middle;spacingLeft=4;spacingRight=4;overflow=hidden;points=[[0,0.5],[1,0.5]];portConstraint=eastwest;rotatable=0;whiteSpace=wrap;html=1;" vertex="1" parent="cPIyVLXr5MEwnOAAFTvE-59">
          <mxGeometry y="30" width="140" height="30" as="geometry" />
        </mxCell>
        <mxCell id="cPIyVLXr5MEwnOAAFTvE-61" value="Name: varchar" style="text;strokeColor=none;fillColor=none;align=left;verticalAlign=middle;spacingLeft=4;spacingRight=4;overflow=hidden;points=[[0,0.5],[1,0.5]];portConstraint=eastwest;rotatable=0;whiteSpace=wrap;html=1;" vertex="1" parent="cPIyVLXr5MEwnOAAFTvE-59">
          <mxGeometry y="60" width="140" height="30" as="geometry" />
        </mxCell>
        <mxCell id="cPIyVLXr5MEwnOAAFTvE-62" value="Beschreibung: varchar" style="text;strokeColor=none;fillColor=none;align=left;verticalAlign=middle;spacingLeft=4;spacingRight=4;overflow=hidden;points=[[0,0.5],[1,0.5]];portConstraint=eastwest;rotatable=0;whiteSpace=wrap;html=1;" vertex="1" parent="cPIyVLXr5MEwnOAAFTvE-59">
          <mxGeometry y="90" width="140" height="30" as="geometry" />
        </mxCell>
        <mxCell id="cPIyVLXr5MEwnOAAFTvE-63" value="Schwierigkeit: int" style="text;strokeColor=none;fillColor=none;align=left;verticalAlign=middle;spacingLeft=4;spacingRight=4;overflow=hidden;points=[[0,0.5],[1,0.5]];portConstraint=eastwest;rotatable=0;whiteSpace=wrap;html=1;" vertex="1" parent="cPIyVLXr5MEwnOAAFTvE-59">
          <mxGeometry y="120" width="140" height="30" as="geometry" />
        </mxCell>
        <mxCell id="cPIyVLXr5MEwnOAAFTvE-64" value="ZielErreicht" style="swimlane;fontStyle=0;childLayout=stackLayout;horizontal=1;startSize=30;horizontalStack=0;resizeParent=1;resizeParentMax=0;resizeLast=0;collapsible=1;marginBottom=0;whiteSpace=wrap;html=1;" vertex="1" parent="1">
          <mxGeometry x="338" y="1280" width="140" height="150" as="geometry" />
        </mxCell>
        <mxCell id="cPIyVLXr5MEwnOAAFTvE-65" value="ZEID: int (PK)" style="text;strokeColor=none;fillColor=none;align=left;verticalAlign=middle;spacingLeft=4;spacingRight=4;overflow=hidden;points=[[0,0.5],[1,0.5]];portConstraint=eastwest;rotatable=0;whiteSpace=wrap;html=1;" vertex="1" parent="cPIyVLXr5MEwnOAAFTvE-64">
          <mxGeometry y="30" width="140" height="30" as="geometry" />
        </mxCell>
        <mxCell id="cPIyVLXr5MEwnOAAFTvE-66" value="UID: int (FK)" style="text;strokeColor=none;fillColor=none;align=left;verticalAlign=middle;spacingLeft=4;spacingRight=4;overflow=hidden;points=[[0,0.5],[1,0.5]];portConstraint=eastwest;rotatable=0;whiteSpace=wrap;html=1;" vertex="1" parent="cPIyVLXr5MEwnOAAFTvE-64">
          <mxGeometry y="60" width="140" height="30" as="geometry" />
        </mxCell>
        <mxCell id="cPIyVLXr5MEwnOAAFTvE-67" value="ZID: int (FK)" style="text;strokeColor=none;fillColor=none;align=left;verticalAlign=middle;spacingLeft=4;spacingRight=4;overflow=hidden;points=[[0,0.5],[1,0.5]];portConstraint=eastwest;rotatable=0;whiteSpace=wrap;html=1;" vertex="1" parent="cPIyVLXr5MEwnOAAFTvE-64">
          <mxGeometry y="90" width="140" height="30" as="geometry" />
        </mxCell>
        <mxCell id="cPIyVLXr5MEwnOAAFTvE-68" value="Datum: date" style="text;strokeColor=none;fillColor=none;align=left;verticalAlign=middle;spacingLeft=4;spacingRight=4;overflow=hidden;points=[[0,0.5],[1,0.5]];portConstraint=eastwest;rotatable=0;whiteSpace=wrap;html=1;" vertex="1" parent="cPIyVLXr5MEwnOAAFTvE-64">
          <mxGeometry y="120" width="140" height="30" as="geometry" />
        </mxCell>
        <mxCell id="cPIyVLXr5MEwnOAAFTvE-69" value="1:n" style="edgeStyle=orthogonalEdgeStyle;rounded=0;orthogonalLoop=1;jettySize=auto;html=1;exitX=0;exitY=0.5;exitDx=0;exitDy=0;entryX=0;entryY=0.5;entryDx=0;entryDy=0;" edge="1" parent="1" source="cPIyVLXr5MEwnOAAFTvE-45" target="cPIyVLXr5MEwnOAAFTvE-66">
          <mxGeometry relative="1" as="geometry" />
        </mxCell>
        <mxCell id="cPIyVLXr5MEwnOAAFTvE-70" value="1:n" style="edgeStyle=orthogonalEdgeStyle;rounded=0;orthogonalLoop=1;jettySize=auto;html=1;exitX=0;exitY=0.5;exitDx=0;exitDy=0;entryX=1;entryY=0.5;entryDx=0;entryDy=0;" edge="1" parent="1" source="cPIyVLXr5MEwnOAAFTvE-52" target="cPIyVLXr5MEwnOAAFTvE-67">
          <mxGeometry relative="1" as="geometry" />
        </mxCell>
        <mxCell id="cPIyVLXr5MEwnOAAFTvE-71" value="UserErfolg" style="swimlane;fontStyle=0;childLayout=stackLayout;horizontal=1;startSize=30;horizontalStack=0;resizeParent=1;resizeParentMax=0;resizeLast=0;collapsible=1;marginBottom=0;whiteSpace=wrap;html=1;" vertex="1" parent="1">
          <mxGeometry x="618" y="1280" width="140" height="150" as="geometry" />
        </mxCell>
        <mxCell id="cPIyVLXr5MEwnOAAFTvE-72" value="UEID: int (PK)" style="text;strokeColor=none;fillColor=none;align=left;verticalAlign=middle;spacingLeft=4;spacingRight=4;overflow=hidden;points=[[0,0.5],[1,0.5]];portConstraint=eastwest;rotatable=0;whiteSpace=wrap;html=1;" vertex="1" parent="cPIyVLXr5MEwnOAAFTvE-71">
          <mxGeometry y="30" width="140" height="30" as="geometry" />
        </mxCell>
        <mxCell id="cPIyVLXr5MEwnOAAFTvE-73" value="UID: int (FK)" style="text;strokeColor=none;fillColor=none;align=left;verticalAlign=middle;spacingLeft=4;spacingRight=4;overflow=hidden;points=[[0,0.5],[1,0.5]];portConstraint=eastwest;rotatable=0;whiteSpace=wrap;html=1;" vertex="1" parent="cPIyVLXr5MEwnOAAFTvE-71">
          <mxGeometry y="60" width="140" height="30" as="geometry" />
        </mxCell>
        <mxCell id="cPIyVLXr5MEwnOAAFTvE-74" value="EID: int (FK)" style="text;strokeColor=none;fillColor=none;align=left;verticalAlign=middle;spacingLeft=4;spacingRight=4;overflow=hidden;points=[[0,0.5],[1,0.5]];portConstraint=eastwest;rotatable=0;whiteSpace=wrap;html=1;" vertex="1" parent="cPIyVLXr5MEwnOAAFTvE-71">
          <mxGeometry y="90" width="140" height="30" as="geometry" />
        </mxCell>
        <mxCell id="cPIyVLXr5MEwnOAAFTvE-75" value="Datum: date" style="text;strokeColor=none;fillColor=none;align=left;verticalAlign=middle;spacingLeft=4;spacingRight=4;overflow=hidden;points=[[0,0.5],[1,0.5]];portConstraint=eastwest;rotatable=0;whiteSpace=wrap;html=1;" vertex="1" parent="cPIyVLXr5MEwnOAAFTvE-71">
          <mxGeometry y="120" width="140" height="30" as="geometry" />
        </mxCell>
        <mxCell id="cPIyVLXr5MEwnOAAFTvE-76" value="1:n" style="edgeStyle=orthogonalEdgeStyle;rounded=0;orthogonalLoop=1;jettySize=auto;html=1;exitX=0;exitY=0.5;exitDx=0;exitDy=0;entryX=1;entryY=0.5;entryDx=0;entryDy=0;" edge="1" parent="1" source="cPIyVLXr5MEwnOAAFTvE-60" target="cPIyVLXr5MEwnOAAFTvE-74">
          <mxGeometry relative="1" as="geometry" />
        </mxCell>
        <mxCell id="cPIyVLXr5MEwnOAAFTvE-77" value="1:n" style="edgeStyle=orthogonalEdgeStyle;rounded=0;orthogonalLoop=1;jettySize=auto;html=1;exitX=0;exitY=0.5;exitDx=0;exitDy=0;entryX=0;entryY=0.5;entryDx=0;entryDy=0;" edge="1" parent="1" source="cPIyVLXr5MEwnOAAFTvE-45" target="cPIyVLXr5MEwnOAAFTvE-73">
          <mxGeometry relative="1" as="geometry">
            <Array as="points">
              <mxPoint x="268" y="1066" />
              <mxPoint x="268" y="1461" />
              <mxPoint x="578" y="1461" />
              <mxPoint x="578" y="1355" />
            </Array>
          </mxGeometry>
        </mxCell>
      </root>
    </mxGraphModel>
  </diagram>
</mxfile>
